<?xml version="1.0" encoding="UTF-8"?>
<svg id="Layer_2" data-name="Layer 2" xmlns="http://www.w3.org/2000/svg" viewBox="0 0 302.06 99.91">
  <defs>
    <style>
      .cls-1 {
        fill: #fff;
      }

      .cls-2 {
        fill: #449871;
      }

      .cls-3 {
        fill: #44c471;
      }

      .cls-4 {
        fill: #bbbdbf;
      }
    </style>
  </defs>
  <g id="Layer_1-2" data-name="Layer 1">
    <g>
      <g>
        <g>
          <path class="cls-4" d="M0,97.16V7.76c0-1.52,1.23-2.76,2.76-2.76h14.55c1.52,0,2.76,1.23,2.76,2.76V80.61c0,1.52,1.23,2.76,2.76,2.76H58c1.52,0,2.76,1.23,2.76,2.76v11.03c0,1.52-1.23,2.76-2.76,2.76H2.76c-1.52,0-2.76-1.23-2.76-2.76Z"/>
          <path class="cls-4" d="M.5,96.66V7.26c0-1.52,1.23-2.76,2.76-2.76h14.55c1.52,0,2.76,1.23,2.76,2.76V80.11c0,1.52,1.23,2.76,2.76,2.76H58.5c1.52,0,2.76,1.23,2.76,2.76v11.03c0,1.52-1.23,2.76-2.76,2.76H3.26c-1.52,0-2.76-1.23-2.76-2.76Z"/>
          <path class="cls-4" d="M1,96.16V6.76c0-1.52,1.23-2.76,2.76-2.76h14.55c1.52,0,2.76,1.23,2.76,2.76V79.61c0,1.52,1.23,2.76,2.76,2.76H59c1.52,0,2.76,1.23,2.76,2.76v11.03c0,1.52-1.23,2.76-2.76,2.76H3.76c-1.52,0-2.76-1.23-2.76-2.76Z"/>
          <path class="cls-4" d="M1.5,95.66V6.26c0-1.52,1.23-2.76,2.76-2.76h14.55c1.52,0,2.76,1.23,2.76,2.76V79.11c0,1.52,1.23,2.76,2.76,2.76H59.5c1.52,0,2.76,1.23,2.76,2.76v11.03c0,1.52-1.23,2.76-2.76,2.76H4.26c-1.52,0-2.76-1.23-2.76-2.76Z"/>
          <path class="cls-4" d="M2,95.16V5.76c0-1.52,1.23-2.76,2.76-2.76h14.55c1.52,0,2.76,1.23,2.76,2.76V78.61c0,1.52,1.23,2.76,2.76,2.76H60c1.52,0,2.76,1.23,2.76,2.76v11.03c0,1.52-1.23,2.76-2.76,2.76H4.76c-1.52,0-2.76-1.23-2.76-2.76Z"/>
          <path class="cls-4" d="M2.5,94.66V5.26c0-1.52,1.23-2.76,2.76-2.76h14.55c1.52,0,2.76,1.23,2.76,2.76V78.11c0,1.52,1.23,2.76,2.76,2.76H60.5c1.52,0,2.76,1.23,2.76,2.76v11.03c0,1.52-1.23,2.76-2.76,2.76H5.26c-1.52,0-2.76-1.23-2.76-2.76Z"/>
          <path class="cls-4" d="M3,94.16V4.76c0-1.52,1.23-2.76,2.76-2.76h14.55c1.52,0,2.76,1.23,2.76,2.76V77.61c0,1.52,1.23,2.76,2.76,2.76H61c1.52,0,2.76,1.23,2.76,2.76v11.03c0,1.52-1.23,2.76-2.76,2.76H5.76c-1.52,0-2.76-1.23-2.76-2.76Z"/>
          <path class="cls-4" d="M3.5,93.66V4.26c0-1.52,1.23-2.76,2.76-2.76h14.55c1.52,0,2.76,1.23,2.76,2.76V77.11c0,1.52,1.23,2.76,2.76,2.76H61.5c1.52,0,2.76,1.23,2.76,2.76v11.03c0,1.52-1.23,2.76-2.76,2.76H6.26c-1.52,0-2.76-1.23-2.76-2.76Z"/>
          <path class="cls-4" d="M4,93.16V3.76c0-1.52,1.23-2.76,2.76-2.76h14.55c1.52,0,2.76,1.23,2.76,2.76V76.61c0,1.52,1.23,2.76,2.76,2.76H62c1.52,0,2.76,1.23,2.76,2.76v11.03c0,1.52-1.23,2.76-2.76,2.76H6.76c-1.52,0-2.76-1.23-2.76-2.76Z"/>
          <path class="cls-4" d="M4.5,92.66V3.26c0-1.52,1.23-2.76,2.76-2.76h14.55c1.52,0,2.76,1.23,2.76,2.76V76.11c0,1.52,1.23,2.76,2.76,2.76H62.5c1.52,0,2.76,1.23,2.76,2.76v11.03c0,1.52-1.23,2.76-2.76,2.76H7.26c-1.52,0-2.76-1.23-2.76-2.76Z"/>
          <path class="cls-4" d="M5,92.16V2.76C5,1.23,6.23,0,7.76,0h14.55C23.83,0,25.06,1.23,25.06,2.76V75.61c0,1.52,1.23,2.76,2.76,2.76H63c1.52,0,2.76,1.23,2.76,2.76v11.03c0,1.52-1.23,2.76-2.76,2.76H7.76c-1.52,0-2.76-1.23-2.76-2.76Z"/>
        </g>
        <path class="cls-1" d="M5,92.16V2.76C5,1.23,6.23,0,7.76,0h14.55C23.83,0,25.06,1.23,25.06,2.76V75.61c0,1.52,1.23,2.76,2.76,2.76H63c1.52,0,2.76,1.23,2.76,2.76v11.03c0,1.52-1.23,2.76-2.76,2.76H7.76c-1.52,0-2.76-1.23-2.76-2.76Z"/>
      </g>
      <g>
        <g>
          <path class="cls-2" d="M96.52,99.91h-15.01c-1.4,0-2.53-1.13-2.53-2.53V63.23c0-1.4-1.13-2.53-2.53-2.53H42.91c-1.4,0-2.53-1.13-2.53-2.53v-11.49c0-1.4,1.13-2.53,2.53-2.53h33.55c1.4,0,2.53-1.13,2.53-2.53V24.07c0-1.4-1.13-2.53-2.53-2.53H38.74c-1.4,0-2.53-1.13-2.53-2.53V7.53c0-1.4,1.13-2.53,2.53-2.53h57.79c1.4,0,2.53,1.13,2.53,2.53V97.38c0,1.4-1.13,2.53-2.53,2.53Z"/>
          <path class="cls-2" d="M97.02,99.41h-15.01c-1.4,0-2.53-1.13-2.53-2.53V62.73c0-1.4-1.13-2.53-2.53-2.53H43.41c-1.4,0-2.53-1.13-2.53-2.53v-11.49c0-1.4,1.13-2.53,2.53-2.53h33.55c1.4,0,2.53-1.13,2.53-2.53V23.57c0-1.4-1.13-2.53-2.53-2.53H39.24c-1.4,0-2.53-1.13-2.53-2.53V7.03c0-1.4,1.13-2.53,2.53-2.53h57.79c1.4,0,2.53,1.13,2.53,2.53V96.88c0,1.4-1.13,2.53-2.53,2.53Z"/>
          <path class="cls-2" d="M97.52,98.91h-15.01c-1.4,0-2.53-1.13-2.53-2.53V62.23c0-1.4-1.13-2.53-2.53-2.53H43.91c-1.4,0-2.53-1.13-2.53-2.53v-11.49c0-1.4,1.13-2.53,2.53-2.53h33.55c1.4,0,2.53-1.13,2.53-2.53V23.07c0-1.4-1.13-2.53-2.53-2.53H39.74c-1.4,0-2.53-1.13-2.53-2.53V6.53c0-1.4,1.13-2.53,2.53-2.53h57.79c1.4,0,2.53,1.13,2.53,2.53V96.38c0,1.4-1.13,2.53-2.53,2.53Z"/>
          <path class="cls-2" d="M98.02,98.41h-15.01c-1.4,0-2.53-1.13-2.53-2.53V61.73c0-1.4-1.13-2.53-2.53-2.53H44.41c-1.4,0-2.53-1.13-2.53-2.53v-11.49c0-1.4,1.13-2.53,2.53-2.53h33.55c1.4,0,2.53-1.13,2.53-2.53V22.57c0-1.4-1.13-2.53-2.53-2.53H40.24c-1.4,0-2.53-1.13-2.53-2.53V6.03c0-1.4,1.13-2.53,2.53-2.53h57.79c1.4,0,2.53,1.13,2.53,2.53V95.88c0,1.4-1.13,2.53-2.53,2.53Z"/>
          <path class="cls-2" d="M98.52,97.91h-15.01c-1.4,0-2.53-1.13-2.53-2.53V61.23c0-1.4-1.13-2.53-2.53-2.53H44.91c-1.4,0-2.53-1.13-2.53-2.53v-11.49c0-1.4,1.13-2.53,2.53-2.53h33.55c1.4,0,2.53-1.13,2.53-2.53V22.07c0-1.4-1.13-2.53-2.53-2.53H40.74c-1.4,0-2.53-1.13-2.53-2.53V5.53c0-1.4,1.13-2.53,2.53-2.53h57.79c1.4,0,2.53,1.13,2.53,2.53V95.38c0,1.4-1.13,2.53-2.53,2.53Z"/>
          <path class="cls-2" d="M99.02,97.41h-15.01c-1.4,0-2.53-1.13-2.53-2.53V60.73c0-1.4-1.13-2.53-2.53-2.53H45.41c-1.4,0-2.53-1.13-2.53-2.53v-11.49c0-1.4,1.13-2.53,2.53-2.53h33.55c1.4,0,2.53-1.13,2.53-2.53V21.57c0-1.4-1.13-2.53-2.53-2.53H41.24c-1.4,0-2.53-1.13-2.53-2.53V5.03c0-1.4,1.13-2.53,2.53-2.53h57.79c1.4,0,2.53,1.13,2.53,2.53V94.88c0,1.4-1.13,2.53-2.53,2.53Z"/>
          <path class="cls-2" d="M99.52,96.91h-15.01c-1.4,0-2.53-1.13-2.53-2.53V60.23c0-1.4-1.13-2.53-2.53-2.53H45.91c-1.4,0-2.53-1.13-2.53-2.53v-11.49c0-1.4,1.13-2.53,2.53-2.53h33.55c1.4,0,2.53-1.13,2.53-2.53V21.07c0-1.4-1.13-2.53-2.53-2.53H41.74c-1.4,0-2.53-1.13-2.53-2.53V4.53c0-1.4,1.13-2.53,2.53-2.53h57.79c1.4,0,2.53,1.13,2.53,2.53V94.38c0,1.4-1.13,2.53-2.53,2.53Z"/>
          <path class="cls-2" d="M100.02,96.41h-15.01c-1.4,0-2.53-1.13-2.53-2.53V59.73c0-1.4-1.13-2.53-2.53-2.53H46.41c-1.4,0-2.53-1.13-2.53-2.53v-11.49c0-1.4,1.13-2.53,2.53-2.53h33.55c1.4,0,2.53-1.13,2.53-2.53V20.57c0-1.4-1.13-2.53-2.53-2.53H42.24c-1.4,0-2.53-1.13-2.53-2.53V4.03c0-1.4,1.13-2.53,2.53-2.53h57.79c1.4,0,2.53,1.13,2.53,2.53V93.88c0,1.4-1.13,2.53-2.53,2.53Z"/>
          <path class="cls-2" d="M100.52,95.91h-15.01c-1.4,0-2.53-1.13-2.53-2.53V59.23c0-1.4-1.13-2.53-2.53-2.53H46.91c-1.4,0-2.53-1.13-2.53-2.53v-11.49c0-1.4,1.13-2.53,2.53-2.53h33.55c1.4,0,2.53-1.13,2.53-2.53V20.07c0-1.4-1.13-2.53-2.53-2.53H42.74c-1.4,0-2.53-1.13-2.53-2.53V3.53c0-1.4,1.13-2.53,2.53-2.53h57.79c1.4,0,2.53,1.13,2.53,2.53V93.38c0,1.4-1.13,2.53-2.53,2.53Z"/>
          <path class="cls-2" d="M101.02,95.41h-15.01c-1.4,0-2.53-1.13-2.53-2.53V58.73c0-1.4-1.13-2.53-2.53-2.53H47.41c-1.4,0-2.53-1.13-2.53-2.53v-11.49c0-1.4,1.13-2.53,2.53-2.53h33.55c1.4,0,2.53-1.13,2.53-2.53V19.57c0-1.4-1.13-2.53-2.53-2.53H43.24c-1.4,0-2.53-1.13-2.53-2.53V3.03c0-1.4,1.13-2.53,2.53-2.53h57.79c1.4,0,2.53,1.13,2.53,2.53V92.88c0,1.4-1.13,2.53-2.53,2.53Z"/>
          <path class="cls-2" d="M101.52,94.91h-15.01c-1.4,0-2.53-1.13-2.53-2.53V58.23c0-1.4-1.13-2.53-2.53-2.53H47.91c-1.4,0-2.53-1.13-2.53-2.53v-11.49c0-1.4,1.13-2.53,2.53-2.53h33.55c1.4,0,2.53-1.13,2.53-2.53V19.07c0-1.4-1.13-2.53-2.53-2.53H43.74c-1.4,0-2.53-1.13-2.53-2.53V2.53c0-1.4,1.13-2.53,2.53-2.53h57.79c1.4,0,2.53,1.13,2.53,2.53V92.38c0,1.4-1.13,2.53-2.53,2.53Z"/>
        </g>
        <path class="cls-3" d="M101.52,94.91h-15.01c-1.4,0-2.53-1.13-2.53-2.53V58.23c0-1.4-1.13-2.53-2.53-2.53H47.91c-1.4,0-2.53-1.13-2.53-2.53v-11.49c0-1.4,1.13-2.53,2.53-2.53h33.55c1.4,0,2.53-1.13,2.53-2.53V19.07c0-1.4-1.13-2.53-2.53-2.53H43.74c-1.4,0-2.53-1.13-2.53-2.53V2.53c0-1.4,1.13-2.53,2.53-2.53h57.79c1.4,0,2.53,1.13,2.53,2.53V92.38c0,1.4-1.13,2.53-2.53,2.53Z"/>
      </g>
    </g>
    <g>
      <path class="cls-1" d="M122.38,34.55V1.09h7.07V28.72h14.34v5.83h-21.42Z"/>
      <path class="cls-1" d="M159.69,35.04c-2.54,0-4.73-.54-6.57-1.63-1.85-1.08-3.27-2.6-4.27-4.54-1-1.94-1.5-4.2-1.5-6.77s.5-4.86,1.5-6.8c1-1.94,2.43-3.46,4.27-4.54,1.85-1.08,4.04-1.63,6.57-1.63s4.73,.54,6.58,1.63c1.85,1.08,3.27,2.6,4.27,4.54,1,1.94,1.5,4.21,1.5,6.8s-.5,4.83-1.5,6.77c-1,1.94-2.43,3.46-4.27,4.54-1.85,1.08-4.04,1.63-6.58,1.63Zm.03-5.39c1.15,0,2.12-.33,2.89-.99,.77-.66,1.36-1.56,1.76-2.7,.4-1.14,.6-2.44,.6-3.9s-.2-2.76-.6-3.9-.98-2.05-1.76-2.71c-.77-.66-1.74-1-2.89-1s-2.14,.33-2.93,1c-.79,.66-1.38,1.57-1.78,2.71s-.6,2.44-.6,3.9,.2,2.76,.6,3.9c.4,1.14,.99,2.04,1.78,2.7,.79,.66,1.77,.99,2.93,.99Z"/>
      <path class="cls-1" d="M176.71,34.55V1.09h22.15V6.92h-15.08v7.97h13.61v5.83h-13.61v13.82h-7.07Z"/>
      <path class="cls-1" d="M210.33,35.02c-1.6,0-3.03-.28-4.28-.84-1.25-.56-2.24-1.39-2.96-2.5-.72-1.1-1.09-2.49-1.09-4.14,0-1.39,.26-2.56,.77-3.51,.51-.95,1.21-1.71,2.09-2.29,.88-.58,1.89-1.01,3.01-1.31s2.31-.5,3.55-.62c1.46-.15,2.63-.3,3.53-.43,.89-.14,1.54-.34,1.94-.61,.4-.27,.6-.67,.6-1.21v-.1c0-1.03-.32-1.83-.97-2.4-.65-.57-1.57-.85-2.75-.85-1.25,0-2.25,.27-2.99,.82-.74,.55-1.23,1.24-1.47,2.07l-6.44-.52c.33-1.52,.97-2.84,1.93-3.96,.96-1.12,2.2-1.98,3.72-2.58,1.52-.6,3.28-.91,5.28-.91,1.39,0,2.73,.16,4.01,.49,1.28,.33,2.42,.83,3.41,1.52,1,.69,1.78,1.57,2.36,2.64,.58,1.07,.87,2.36,.87,3.85v16.92h-6.6v-3.48h-.2c-.4,.78-.94,1.47-1.62,2.07-.68,.59-1.49,1.06-2.43,1.39-.95,.33-2.04,.5-3.28,.5Zm1.99-4.8c1.02,0,1.93-.2,2.71-.61s1.4-.96,1.85-1.66c.45-.7,.67-1.49,.67-2.37v-2.66c-.22,.14-.51,.27-.89,.38s-.8,.22-1.27,.31c-.47,.09-.94,.17-1.41,.25-.47,.07-.89,.13-1.27,.19-.82,.12-1.53,.31-2.14,.57-.61,.26-1.08,.61-1.42,1.05-.34,.44-.51,.99-.51,1.64,0,.95,.35,1.67,1.04,2.16,.69,.5,1.57,.74,2.64,.74Z"/>
    </g>
    <g>
      <path class="cls-1" d="M122.38,45.33h5.14l17.68,42.45h.43l17.68-42.45h5.14v48.73h-4.19V54.73h-.38l-16.44,39.33h-4.04l-16.44-39.33h-.38v39.33h-4.19V45.33Z"/>
      <path class="cls-1" d="M195.28,94.82c-3.41,0-6.36-.8-8.85-2.39s-4.41-3.81-5.77-6.64c-1.36-2.83-2.03-6.09-2.03-9.79s.68-6.95,2.03-9.81,3.24-5.11,5.64-6.73,5.18-2.44,8.34-2.44c1.98,0,3.89,.36,5.73,1.08,1.84,.72,3.49,1.82,4.96,3.31,1.47,1.48,2.63,3.35,3.49,5.59,.86,2.25,1.29,4.9,1.29,7.96v2.09h-28.55v-3.74h24.22c0-2.35-.47-4.46-1.42-6.34-.94-1.88-2.25-3.37-3.93-4.46-1.67-1.09-3.6-1.64-5.79-1.64-2.32,0-4.35,.62-6.11,1.86s-3.14,2.87-4.13,4.9-1.5,4.25-1.51,6.66v2.24c0,2.9,.5,5.44,1.51,7.6,1.01,2.17,2.44,3.84,4.29,5.03,1.86,1.19,4.05,1.78,6.59,1.78,1.73,0,3.25-.27,4.56-.81s2.41-1.26,3.31-2.18c.9-.91,1.57-1.92,2.04-3.01l4.02,1.31c-.56,1.54-1.46,2.96-2.72,4.26-1.26,1.3-2.83,2.34-4.71,3.13-1.88,.79-4.04,1.18-6.48,1.18Z"/>
      <path class="cls-1" d="M232.56,94.82c-3,0-5.62-.79-7.88-2.38-2.25-1.59-4.01-3.8-5.27-6.64-1.26-2.84-1.89-6.15-1.89-9.92s.63-7.05,1.89-9.89c1.26-2.83,3.03-5.04,5.29-6.61,2.27-1.58,4.91-2.37,7.92-2.37,2.22,0,4.07,.39,5.54,1.18,1.48,.79,2.66,1.76,3.55,2.91,.89,1.16,1.58,2.28,2.07,3.38h.38v-19.15h4.26v48.73h-4.14v-6.78h-.5c-.49,1.11-1.19,2.25-2.09,3.42-.9,1.17-2.1,2.14-3.58,2.94-1.48,.79-3.33,1.19-5.55,1.19Zm.5-3.88c2.36,0,4.38-.65,6.04-1.94,1.67-1.29,2.94-3.08,3.82-5.35,.88-2.28,1.32-4.89,1.32-7.84s-.44-5.5-1.31-7.74-2.14-4-3.81-5.28c-1.67-1.28-3.69-1.92-6.07-1.92s-4.5,.66-6.17,1.99c-1.67,1.32-2.94,3.11-3.81,5.37-.87,2.25-1.3,4.78-1.3,7.59s.44,5.4,1.31,7.69c.87,2.28,2.14,4.1,3.82,5.44,1.67,1.34,3.72,2.01,6.15,2.01Z"/>
      <path class="cls-1" d="M262.71,51.23c-.87,0-1.62-.3-2.24-.89-.62-.59-.93-1.31-.93-2.15s.31-1.56,.94-2.15,1.37-.89,2.22-.89,1.62,.3,2.24,.89c.62,.59,.93,1.31,.93,2.15s-.31,1.56-.94,2.15-1.37,.89-2.22,.89Zm-2.17,42.83V57.51h4.26v36.55h-4.26Z"/>
      <path class="cls-1" d="M286.24,94.89c-2.2,0-4.22-.43-6.04-1.3s-3.28-2.12-4.35-3.76c-1.08-1.64-1.62-3.64-1.62-5.98,0-1.81,.34-3.33,1.02-4.57,.68-1.24,1.65-2.25,2.9-3.04s2.74-1.42,4.45-1.88,3.6-.82,5.66-1.07c2.05-.25,3.78-.48,5.2-.67,1.42-.19,2.5-.49,3.25-.9,.75-.41,1.12-1.08,1.12-2v-.86c0-2.49-.74-4.45-2.22-5.89-1.48-1.44-3.61-2.15-6.39-2.15-2.63,0-4.78,.58-6.44,1.74-1.66,1.16-2.82,2.52-3.49,4.09l-4.02-1.45c.82-2,1.97-3.6,3.43-4.79,1.46-1.2,3.09-2.06,4.9-2.59s3.64-.8,5.5-.8c1.4,0,2.85,.18,4.37,.55,1.51,.37,2.92,1,4.22,1.89,1.3,.9,2.36,2.14,3.17,3.74,.81,1.59,1.21,3.61,1.21,6.06v24.82h-4.23v-5.78h-.26c-.51,1.08-1.26,2.12-2.26,3.14-1,1.01-2.25,1.85-3.76,2.5-1.51,.65-3.28,.98-5.31,.98Zm.57-3.88c2.25,0,4.2-.5,5.85-1.5,1.65-1,2.92-2.33,3.82-3.99,.9-1.66,1.34-3.49,1.34-5.48v-5.28c-.32,.3-.84,.57-1.58,.81-.74,.24-1.59,.45-2.55,.63-.96,.18-1.92,.34-2.87,.46-.95,.13-1.81,.24-2.57,.33-2.06,.25-3.82,.65-5.28,1.19-1.46,.54-2.58,1.28-3.36,2.22-.78,.94-1.17,2.15-1.17,3.63,0,2.22,.79,3.94,2.38,5.15,1.59,1.21,3.58,1.82,5.97,1.82Z"/>
    </g>
  </g>
</svg>